<svg xmlns="http://www.w3.org/2000/svg" width="200" height="20" viewBox="0 0 200 20"><path d="M36.224 11.214c0-.692.122-1.354.368-1.988.245-.634.6-1.19 1.066-1.67a5.047 5.047 0 0 1 1.714-1.144c.678-.281 1.45-.422 2.315-.422 1.175 0 2.163.246 2.964.74.8.492 1.401 1.135 1.802 1.93l-3.022.902c-.4-.64-.988-.96-1.763-.96-.646 0-1.185.237-1.618.71-.433.474-.649 1.108-.649 1.902 0 .397.058.758.174 1.085.117.326.278.605.485.836.206.23.448.41.726.537.278.129.572.193.882.193a2.1 2.1 0 0 0 1.065-.279c.323-.185.562-.425.717-.72l3.022.922c-.375.78-.972 1.421-1.792 1.92-.82.5-1.818.75-2.993.75-.853 0-1.617-.144-2.296-.433a5.266 5.266 0 0 1-1.724-1.152 4.856 4.856 0 0 1-1.075-1.671 5.453 5.453 0 0 1-.368-1.988zm14.123.019c0 .794.213 1.43.64 1.911.425.48.968.72 1.626.72a2.06 2.06 0 0 0 1.599-.73c.2-.23.358-.509.474-.835.117-.326.174-.682.174-1.066 0-.794-.212-1.43-.638-1.911a2.06 2.06 0 0 0-1.609-.72 2.126 2.126 0 0 0-1.617.73c-.2.23-.359.509-.475.835a3.155 3.155 0 0 0-.174 1.066zm2.266 5.225c-.865 0-1.637-.141-2.315-.423a5.036 5.036 0 0 1-1.714-1.143 4.817 4.817 0 0 1-1.056-1.67 5.594 5.594 0 0 1-.358-1.99c0-.69.119-1.353.358-1.987a4.815 4.815 0 0 1 1.056-1.67 5.157 5.157 0 0 1 1.714-1.153c.678-.288 1.45-.432 2.315-.432.866 0 1.634.144 2.306.432.671.288 1.24.672 1.705 1.152.464.48.82 1.037 1.065 1.671a5.47 5.47 0 0 1 .368 1.988c0 .692-.12 1.354-.358 1.988a4.808 4.808 0 0 1-1.056 1.671 5.043 5.043 0 0 1-1.714 1.143c-.678.282-1.45.423-2.316.423zm12.011-2.593c.427 0 .833-.125 1.221-.375.387-.25.69-.592.91-1.028V10.35a2.777 2.777 0 0 0-.939-1.258c-.433-.326-.881-.49-1.347-.49-.336 0-.642.075-.92.222-.278.147-.52.342-.726.585a2.59 2.59 0 0 0-.475.846c-.11.32-.165.66-.165 1.017 0 .756.226 1.377.679 1.864.451.486 1.039.73 1.762.73zm-.832 2.593c-.698 0-1.34-.132-1.928-.394a4.474 4.474 0 0 1-1.521-1.105 5.195 5.195 0 0 1-.997-1.661 5.855 5.855 0 0 1-.36-2.084c0-.73.11-1.415.33-2.055.22-.64.53-1.194.93-1.662.4-.467.875-.835 1.424-1.104a4.06 4.06 0 0 1 1.811-.403 3.79 3.79 0 0 1 1.918.5 3.44 3.44 0 0 1 1.337 1.344v-5.59h3.1v10.564c0 .307.058.522.174.643.116.122.323.196.62.222v2.593a7.529 7.529 0 0 1-1.492.153c-1.085-.026-1.704-.454-1.86-1.287l-.058-.538c-.374.628-.865 1.095-1.472 1.402a4.27 4.27 0 0 1-1.956.462zm15.575-6.185c-.065-.64-.297-1.146-.697-1.518-.401-.37-.898-.556-1.492-.556-.607 0-1.108.188-1.502.566-.394.378-.623.88-.687 1.508h4.378zm-2.15 6.185c-.853 0-1.618-.138-2.296-.413a5.092 5.092 0 0 1-1.724-1.124 4.784 4.784 0 0 1-1.075-1.642 5.25 5.25 0 0 1-.368-1.95c0-.73.122-1.418.368-2.064a4.99 4.99 0 0 1 1.065-1.7 4.983 4.983 0 0 1 1.715-1.153c.678-.281 1.449-.422 2.315-.422.865 0 1.633.14 2.305.422a5.07 5.07 0 0 1 1.705 1.143c.465.48.817 1.034 1.055 1.661a5.51 5.51 0 0 1 .36 1.979c0 .18-.008.355-.02.528a3.682 3.682 0 0 1-.058.451h-7.517c.051.679.3 1.195.746 1.547.445.352.952.528 1.52.528a2.8 2.8 0 0 0 1.308-.327c.42-.218.7-.512.843-.883l2.634.73c-.4.793-1.02 1.44-1.859 1.94-.84.499-1.847.749-3.022.749zm22.899-.193h-3.1V10.6c0-.665-.12-1.149-.359-1.45a1.161 1.161 0 0 0-.959-.451c-.413 0-.817.166-1.21.5a2.874 2.874 0 0 0-.863 1.286v5.781h-3.1V10.6c0-.665-.119-1.149-.358-1.45a1.162 1.162 0 0 0-.959-.451c-.413 0-.816.163-1.21.49-.395.326-.682.758-.862 1.296v5.781h-3.1V6.182h2.79v1.69a3.662 3.662 0 0 1 1.53-1.402c.646-.32 1.395-.48 2.247-.48.414 0 .781.051 1.104.153.323.103.598.244.824.423a2.514 2.514 0 0 1 .881 1.382 3.858 3.858 0 0 1 1.511-1.45c.633-.339 1.357-.508 2.17-.508.646 0 1.166.118 1.56.355.393.237.7.544.92.922.22.378.365.79.436 1.239.07.448.107.883.107 1.306v6.453zm9.046-5.992c-.064-.64-.297-1.146-.697-1.518-.4-.37-.898-.556-1.492-.556-.607 0-1.108.188-1.502.566-.393.378-.622.88-.687 1.508h4.378zm-2.15 6.185c-.853 0-1.617-.138-2.296-.413a5.096 5.096 0 0 1-1.724-1.124 4.792 4.792 0 0 1-1.075-1.642 5.256 5.256 0 0 1-.368-1.95c0-.73.122-1.418.368-2.064.245-.647.6-1.214 1.065-1.7a4.983 4.983 0 0 1 1.715-1.153c.678-.281 1.45-.422 2.315-.422s1.634.14 2.305.422a5.07 5.07 0 0 1 1.705 1.143 4.84 4.84 0 0 1 1.056 1.661 5.51 5.51 0 0 1 .359 1.979c0 .18-.008.355-.02.528a3.682 3.682 0 0 1-.058.451h-7.517c.052.679.3 1.195.746 1.547.445.352.952.528 1.521.528a2.8 2.8 0 0 0 1.307-.327c.42-.218.7-.512.843-.883l2.635.73c-.4.793-1.02 1.44-1.86 1.94-.84.499-1.847.749-3.022.749zm16.641-.193h-3.1V10.6c0-.665-.125-1.149-.377-1.45-.252-.3-.585-.451-.998-.451-.22 0-.442.045-.668.134a2.49 2.49 0 0 0-.64.375c-.2.16-.384.349-.551.566a2.535 2.535 0 0 0-.388.711v5.781h-3.1V6.182h2.79v1.69c.374-.602.903-1.066 1.588-1.393.685-.326 1.473-.49 2.364-.49.659 0 1.192.12 1.598.356.407.237.72.544.94.922.22.378.365.79.435 1.239.072.448.107.883.107 1.306v6.453zm8.582-.537c-.426.18-.91.345-1.452.499a6.085 6.085 0 0 1-1.666.23 4.03 4.03 0 0 1-1.095-.144 2.448 2.448 0 0 1-.901-.46 2.155 2.155 0 0 1-.61-.836c-.149-.346-.223-.762-.223-1.249V8.506h-1.298V6.18h1.298V2.974h3.1V6.18h2.073v2.325h-2.073v4.206c0 .333.087.573.261.72.175.148.39.221.65.221.219 0 .451-.038.697-.115.245-.077.465-.16.658-.25l.581 2.44zm3.643-4.495c0 .794.213 1.43.64 1.911.425.48.967.72 1.626.72a2.06 2.06 0 0 0 1.599-.73c.2-.23.358-.509.474-.835.117-.326.174-.682.174-1.066 0-.794-.213-1.43-.639-1.911a2.06 2.06 0 0 0-1.608-.72 2.112 2.112 0 0 0-1.617.73c-.2.23-.36.509-.475.835a3.162 3.162 0 0 0-.174 1.066zm2.266 5.225c-.865 0-1.637-.141-2.315-.423a5.039 5.039 0 0 1-1.714-1.143 4.817 4.817 0 0 1-1.056-1.67 5.593 5.593 0 0 1-.358-1.99c0-.69.119-1.353.358-1.987a4.815 4.815 0 0 1 1.056-1.67 5.16 5.16 0 0 1 1.714-1.153c.678-.288 1.45-.432 2.315-.432s1.634.144 2.306.432c.671.288 1.24.672 1.704 1.152.465.48.82 1.037 1.066 1.671a5.46 5.46 0 0 1 .368 1.988c0 .692-.12 1.354-.359 1.988a4.811 4.811 0 0 1-1.055 1.671 5.047 5.047 0 0 1-1.714 1.143c-.679.282-1.45.423-2.316.423zm13.387-7.645c-.75.013-1.424.134-2.025.365-.6.23-1.043.576-1.327 1.037v6.05h-3.1V6.181h2.848v2.037c.362-.679.817-1.207 1.366-1.585a3.289 3.289 0 0 1 1.754-.605c.258 0 .419.007.484.019v2.766zM9.728 12.778c.447 0 .809.359.809.802a.806.806 0 0 1-.81.802H6.455a.806.806 0 0 1-.81-.802c0-.443.363-.802.81-.802h3.274zm.79-2.972c.447 0 .809.36.809.802a.806.806 0 0 1-.81.803H6.474a.806.806 0 0 1-.81-.803c0-.443.363-.802.81-.802h4.045zm6.857-1.56a2.417 2.417 0 0 1-2.428-2.406 2.417 2.417 0 0 1 2.428-2.406 2.417 2.417 0 0 1 2.427 2.406 2.417 2.417 0 0 1-2.427 2.407zm4.746 5.111a1.164 1.164 0 0 1-1.152 1.351H13.78a1.164 1.164 0 0 1-1.152-1.35c.361-2.226 1.595-4.022 3.205-4.734a3.173 3.173 0 0 0 3.084-.001c1.61.713 2.844 2.51 3.204 4.734zm-9.176-5.72a.806.806 0 0 1-.809.803H8.091l-.04-.002H6.472a.806.806 0 0 1-.81-.802c0-.443.363-.803.81-.803H8.9l.04.002h3.196c.447 0 .81.36.81.802zm-6.472-2.17a.805.805 0 0 1-.81-.802c0-.443.363-.802.81-.802h.377l.027-.001h5.258c.446 0 .809.359.809.802a.806.806 0 0 1-.81.802H7.31l-.027.002h-.81zm8.951 11.596a.754.754 0 0 0 .757-.75h8.091V1.872H3.237v14.44h8.09c0 .414.339.75.757.75h3.34zm12.084-.75v1.097c0 .694-.568 1.257-1.268 1.257H1.268c-.7 0-1.268-.563-1.268-1.257v-1.097h1.619V1.854C1.619.98 2.334.27 3.217.27h21.075c.883 0 1.598.71 1.598 1.585v14.458h1.618zM160.683.377h.758v18.854h-.758V.377zm9.853.396h1.379c.64 0 1.102.09 1.387.27.285.182.427.467.427.858 0 .263-.07.482-.21.656-.14.175-.34.285-.603.33v.031c.326.06.566.177.72.353.153.176.23.413.23.713 0 .405-.146.722-.437.951-.291.23-.696.344-1.215.344h-1.678V.773zm.76 1.861h.73c.318 0 .55-.048.696-.146.146-.098.22-.264.22-.498 0-.211-.08-.365-.237-.46-.158-.094-.409-.14-.752-.14h-.658v1.244zm0 .598V4.66h.806c.318 0 .558-.059.72-.177.162-.118.243-.304.243-.56 0-.233-.082-.407-.248-.52-.165-.113-.416-.17-.753-.17h-.769zm5.192-.403 1.099-2.056h.826l-1.547 2.758V5.28h-.763V3.556L174.562.773h.826l1.1 2.056zm17.905 15.436c-.772-.585-1.371-1.278-1.78-2.059a5.335 5.335 0 0 1-.616-2.49c0-.876.205-1.716.61-2.496.404-.775 1.006-1.465 1.786-2.052l.162-.118.066.088.463.654-.073.064c-.653.586-1.087 1.151-1.346 1.73-.26.579-.39 1.291-.39 2.12 0 .857.135 1.584.404 2.161.27.58.7 1.14 1.275 1.66l.13.106-.056.089-.473.667-.162-.124zm3.208 0-.162.124-.473-.667-.056-.09.13-.106c.576-.52 1.005-1.079 1.275-1.659.269-.577.405-1.304.405-2.161 0-.829-.131-1.541-.391-2.12-.259-.579-.692-1.144-1.346-1.73l-.073-.064.463-.654.066-.088.162.118c.78.587 1.382 1.277 1.785 2.052.406.78.61 1.62.61 2.495 0 .868-.206 1.707-.616 2.491-.408.78-1.007 1.474-1.779 2.059zm-25.488-4.544c0 .64.17 1.16.513 1.563.352.408.795.61 1.33.61.57 0 1.033-.196 1.385-.588.352-.408.527-.925.527-1.55 0-.627-.175-1.143-.527-1.55-.352-.398-.81-.597-1.371-.597-.53 0-.973.201-1.33.604-.352.407-.527.91-.527 1.508zm3.66-3.318h1.548v6.678h-1.549v-.7c-.635.594-1.318.892-2.049.892-.923 0-1.685-.334-2.289-1-.599-.682-.898-1.533-.898-2.552 0-1 .3-1.835.898-2.503.599-.667 1.348-1 2.248-1 .777 0 1.474.32 2.09.96v-.775zm3.494.057h1.542v.597c.284-.298.53-.514.763-.591.723-.243 1.609-.075 2.328.327l-.626 1.253c-.292-.209-.75-.346-1.028-.346-.84 0-1.437.705-1.437 1.975v3.463h-1.542V10.46zm10.571.23v1.476c-.474-.557-1.541-.557-1.912-.557-.58 0-1.062.204-1.445.611-.384.406-.576.916-.576 1.528 0 .626.185 1.141.554 1.544.376.401.853.602 1.433.602.37 0 1.518-.117 1.946-.502v1.394c-.625.324-1.251.487-1.877.487-1.032 0-1.897-.334-2.59-1-.695-.674-1.042-1.508-1.042-2.504 0-.997.352-1.837 1.054-2.523.705-.685 1.568-1.028 2.591-1.028.659 0 1.28.157 1.864.473z" fill-rule="evenodd"/></svg>