<svg height="29" viewBox="0 0 84 29" width="84" xmlns="http://www.w3.org/2000/svg"><path d="M44.151 4.945c2.297 0 4.253.886 5.818 2.606 1.581 1.671 2.38 3.96 2.372 6.808-.009 2.79-.824 5.221-2.439 6.942-1.598 1.713-3.637 2.581-6.067 2.581-2.105-.008-4.006-.762-5.267-2.058l-.176-.189-.017 7.351-4.153-.008v-.31l.05-23.514 4.128.008-.008 2.866c1.357-1.53 3.545-3.083 5.76-3.083zm26.6.059c2.371 0 4.01.534 5.267 1.57 1.205 1.003 1.851 2.785 1.903 4.663l.003.282-.025 12.13h-4.203v-.51c0-.518-.002-1.057-.008-1.596-1.215 1.688-2.913 2.506-5.177 2.506-1.797 0-3.312-.543-4.427-1.553-1.124-1.028-1.723-2.431-1.715-4.068.017-3.08 2.193-5.205 6.004-5.874l.297-.049 5.043-.794v-.4c0-.853-.25-1.88-.749-2.298-.516-.434-1.132-.802-2.214-.802-2.97 0-3.571 2.195-3.602 3.292l-.001.091-3.729.05c0-1.62.749-3.717 2.272-5.036 1.214-1.054 2.989-1.545 4.706-1.6l.32-.004zM54.462.259l4.136.008-.008 4.954 3.845.008-.008 3.45-3.845-.008-.017 9.297c0 1.02.216 1.688.657 2.005.466.334 1.415.025 1.415.025l.375 3.617s-1.307.334-2.14.334c-1.081 0-1.997-.276-2.712-.818-1.149-.87-1.74-2.398-1.731-4.536l.016-9.924-3.47-3.467 3.479.009zM30.028 7.66c1.19 1.236 2.613 3.417 2.605 6.808-.009 3.392-1.432 5.563-2.622 6.791-1.631 1.671-3.845 2.632-6.075 2.632-.092 0-.183 0-.275-.009-2.389-.008-4.494-.86-6.259-2.53-1.772-1.688-2.671-4.01-2.671-6.926s.907-5.237 2.688-6.916c1.756-1.663 3.862-2.506 6.25-2.506 2.364-.067 4.67.902 6.359 2.656zM20.44 0v4.102l-8.006.008.017 19.555-4.32-.008v-.376L8.164 4.1H0L.008 0zm59.482.276 3.728.008v.1l-.04 23.256-3.72-.008v-.109zm-6.209 14.768-4.145.702c-2.022.343-2.962 1.136-2.97 2.498-.009 1.257.885 2.092 2.27 2.166l.184.006h.017c2.65 0 4.534-2.075 4.64-5.084l.004-.246zM23.644 8.696c-1.39 0-2.596.534-3.57 1.595-.957 1.045-1.448 2.44-1.448 4.152s.49 3.107 1.44 4.152c.973 1.069 2.18 1.603 3.57 1.612 1.415 0 2.63-.535 3.604-1.596.982-1.069 1.473-2.464 1.481-4.151.009-1.696-.49-3.091-1.473-4.152-.974-1.07-2.189-1.612-3.604-1.612zm19.517.125h-.017c-1.39 0-2.546.51-3.529 1.562-.973 1.02-1.464 2.348-1.473 3.951 0 1.621.483 3.074 1.465 4.135.999 1.028 2.156 1.537 3.537 1.537 1.407 0 2.589-.518 3.537-1.528.99-1.053 1.465-2.506 1.473-4.127.009-1.612-.49-2.94-1.456-3.951-.94-1.044-2.13-1.579-3.537-1.579z" fill="#262d3d" fill-rule="evenodd"/></svg>